<?xml version="1.0" standalone="no"?><!DOCTYPE svg PUBLIC "-//W3C//DTD SVG 1.1//EN" "http://www.w3.org/Graphics/SVG/1.1/DTD/svg11.dtd"><svg t="1712975463669" class="icon" viewBox="0 0 1024 1024" version="1.1" xmlns="http://www.w3.org/2000/svg" p-id="3846" xmlns:xlink="http://www.w3.org/1999/xlink" width="200" height="200"><path d="M142.999766 757.996156h122.998078v122.998078h-122.998078z" fill="#8690AF" p-id="3847"></path><path d="M142.997766 634.998078H265.995844v122.998078H142.997766zM265.997844 757.996156h122.998078v122.998078h-122.998078z" fill="#CDD3E0" p-id="3848"></path><path d="M142.997766 512H265.995844v122.998078H142.997766zM265.997844 634.998078h122.998078v122.998078h-122.998078zM388.995922 757.996156h122.998078v122.998078h-122.998078z" fill="#FBF7F6" p-id="3849"></path><path d="M142.997766 389.001922H265.995844v122.998078H142.997766zM265.997844 512h122.998078v122.998078h-122.998078zM388.995922 634.998078h122.998078v122.998078h-122.998078zM511.994 757.996156h122.998078v122.998078h-122.998078z" fill="#CDD3E0" p-id="3850"></path><path d="M142.997766 266.003844H265.995844v122.998078H142.997766zM265.997844 389.001922h122.998078v122.998078h-122.998078zM388.995922 512h122.998078v122.998078h-122.998078zM511.994 634.998078h122.998078v122.998078h-122.998078zM634.992078 757.996156h122.998078v122.998078h-122.998078z" fill="#FBF7F6" p-id="3851"></path><path d="M142.999766 143.005766h122.998078v122.998078h-122.998078zM265.997844 266.003844h122.998078v122.998078h-122.998078zM388.995922 389.001922h122.998078v122.998078h-122.998078zM511.994 512h122.998078v122.998078h-122.998078zM634.992078 634.998078h122.998078v122.998078h-122.998078zM757.990156 757.996156h122.998079v122.998078h-122.998079z" fill="#8690AF" p-id="3852"></path><path d="M757.990156 634.998078h122.998079v122.998078h-122.998079z" fill="#FBF7F6" p-id="3853"></path><path d="M757.990156 512h122.998079v122.998078h-122.998079z" fill="#CDD3E0" p-id="3854"></path><path d="M634.992078 512h122.998078v122.998078h-122.998078z" fill="#FBF7F6" p-id="3855"></path><path d="M634.992078 389.001922h122.998078v122.998078h-122.998078z" fill="#CDD3E0" p-id="3856"></path><path d="M757.990156 389.001922h122.998079v122.998078h-122.998079z" fill="#FBF7F6" p-id="3857"></path><path d="M757.990156 266.003844h122.998079v122.998078h-122.998079z" fill="#CDD3E0" p-id="3858"></path><path d="M634.992078 266.003844h122.998078v122.998078h-122.998078z" fill="#FBF7F6" p-id="3859"></path><path d="M757.990156 143.005766h122.998079v122.998078h-122.998079z" fill="#8690AF" p-id="3860"></path><path d="M634.992078 143.005766h122.998078v122.998078h-122.998078z" fill="#CDD3E0" p-id="3861"></path><path d="M511.994 143.005766h122.998078v122.998078h-122.998078z" fill="#FBF7F6" p-id="3862"></path><path d="M388.995922 143.005766h122.998078v122.998078h-122.998078z" fill="#CDD3E0" p-id="3863"></path><path d="M265.997844 143.005766h122.998078v122.998078h-122.998078z" fill="#FBF7F6" p-id="3864"></path><path d="M388.995922 266.003844h122.998078v122.998078h-122.998078z" fill="#FBF7F6" p-id="3865"></path><path d="M511.994 266.003844h122.998078v122.998078h-122.998078z" fill="#CDD3E0" p-id="3866"></path><path d="M511.994 389.001922h122.998078v122.998078h-122.998078z" fill="#FBF7F6" p-id="3867"></path><path d="M913.995719 860.994547h-13.007797v-697.989094h102.998391c11.045827 0 19.999688-8.95586 19.999687-19.999687s-8.95386-19.999688-19.999687-19.999688h-102.998391V20.005687c0-11.043827-8.95386-19.999688-19.999687-19.999687s-19.999688 8.95386-19.999688 19.999687v103.000391h-697.989094v-12.993797c0-11.045827-8.95386-19.999688-19.999687-19.999687s-19.999688 8.95386-19.999688 19.999687v12.993797H19.999688c-11.045827 0-19.999688 8.95586-19.999688 19.999688s8.95386 19.999688 19.999688 19.999687h102.99839v697.989094H19.999688c-11.045827 0-19.999688 8.95586-19.999688 19.999687 0 11.045827 8.95386 19.999688 19.999688 19.999688h102.99839v103.000391c0 11.043827 8.95386 19.999688 19.999688 19.999687s19.999688-8.95586 19.999687-19.999687v-103.000391h697.989094v103.000391c0 11.043827 8.95386 19.999688 19.999688 19.999687s19.999688-8.95586 19.999687-19.999687v-103.000391h13.007797c11.045827 0 19.999688-8.95386 19.999687-19.999688 0.002-11.043827-8.95186-19.999688-19.997687-19.999687z m-176.00525-368.994235h-82.998703v-82.998703h82.998703v82.998703z m39.999375-82.998703h82.998703v82.998703h-82.998703v-82.998703z m-162.997453 82.998703h-82.998703v-82.998703h82.998703v82.998703z m-82.998703-122.998078v-82.998703h82.998703v82.998703h-82.998703z m-39.999375 0H408.993609v-82.998703h83.000704v82.998703z m0 39.999375v82.998703H408.993609v-82.998703h83.000704z m-122.998079 82.998703h-82.998703v-82.998703h82.998703v82.998703z m-122.998078 0h-82.998703v-82.998703h82.998703v82.998703z m0 39.999376v82.998703h-82.998703v-82.998703h82.998703z m39.999375 0h82.998703v82.998703h-82.998703v-82.998703z m122.998078 0h83.000704v82.998703h-83.000704v-82.998703z m82.998704 122.998078v82.998703H408.993609v-82.998703h83.000704z m39.999375 0h82.998703v82.998703h-82.998703v-82.998703z m0-39.999375v-82.998703h82.998703v82.998703h-82.998703z m122.998078-82.998703h82.998703v82.998703h-82.998703v-82.998703z m122.998078 0h82.998703v82.998703h-82.998703v-82.998703z m82.998703-162.997454h-82.998703v-82.998703h82.998703v82.998703z m-122.998078 0h-82.998703v-82.998703h82.998703v82.998703z m-82.998703-122.998078v-82.998703h82.998703v82.998703h-82.998703z m-39.999375 0h-82.998703v-82.998703h82.998703v82.998703z m-122.998078 0H408.993609v-82.998703h83.000704v82.998703z m-122.998079 0h-82.998703v-82.998703h82.998703v82.998703z m0 39.999375v82.998703h-82.998703v-82.998703h82.998703z m-122.998078 82.998703h-82.998703v-82.998703h82.998703v82.998703z m-82.998703 285.995532h82.998703v82.998703h-82.998703v-82.998703z m122.998078 0h82.998703v82.998703h-82.998703v-82.998703z m82.998703 122.998078v82.998703h-82.998703v-82.998703h82.998703z m39.999375 0h83.000704v82.998703h-83.000704v-82.998703z m122.998079 0h82.998703v82.998703h-82.998703v-82.998703z m122.998078 0h82.998703v82.998703h-82.998703v-82.998703z m0-39.999375v-82.998703h82.998703v82.998703h-82.998703z m122.998078-82.998703h82.998703v82.998703h-82.998703v-82.998703z m82.998703-408.99361h-82.998703v-82.998703h82.998703v82.998703z m-614.990391-82.998703v82.998703h-82.998703v-82.998703h82.998703z m-82.998703 614.990391h82.998703v82.998703h-82.998703v-82.998703z m614.990391 82.998703v-82.998703h82.998703v82.998703h-82.998703zM1004.000312 860.994547h-0.013999c-11.045827 0-19.991688 8.95586-19.991688 19.999687 0 11.045827 8.96186 19.999688 20.005687 19.999688 11.045827 0 19.999688-8.95386 19.999688-19.999688 0-11.043827-8.95386-19.999688-19.999688-19.999687zM142.999766 40.021375c11.045827 0 19.999688-8.95586 19.999687-19.999688v-0.016c0-11.043827-8.95386-19.991688-19.999687-19.991687s-19.999688 8.96186-19.999688 20.007687c-0.002 11.043827 8.95386 19.999688 19.999688 19.999688z" p-id="3868"></path></svg>